<!--?xml version="1.0" standalone="no"?-->
              <svg id="sw-js-blob-svg" viewBox="0 0 100 100" xmlns="http://www.w3.org/2000/svg" version="1.1">
                    <defs> 
                        <linearGradient id="sw-gradient" x1="0" x2="1" y1="1" y2="0">
                            <stop id="stop1" stop-color="rgba(72.073, 78.399, 255, 1)" offset="0%"></stop>
                            <stop id="stop2" stop-color="rgba(168.53, 200.812, 255, 1)" offset="100%"></stop>
                        </linearGradient>
                    </defs>
                <path fill="url(#sw-gradient)" d="M20.2,-19C27.5,-17.9,35.8,-12.8,35.5,-7.3C35.2,-1.8,26.5,4.2,20.6,9.6C14.8,15,11.9,19.8,7.1,23C2.4,26.3,-4.2,28,-8.1,25.2C-12,22.5,-13.1,15.4,-18.5,9.2C-23.9,2.9,-33.5,-2.3,-34.3,-7.4C-35,-12.5,-26.8,-17.3,-19.6,-18.4C-12.4,-19.5,-6.2,-16.8,0.1,-16.9C6.4,-17.1,12.9,-20,20.2,-19Z" width="100%" height="100%" transform="translate(50 50)" stroke-width="0" style="transition: all 0.3s ease 0s;" stroke="url(#sw-gradient)"></path>
              </svg>