<!--?xml version="1.0" standalone="no"?-->
              <svg id="sw-js-blob-svg" viewBox="0 0 100 100" xmlns="http://www.w3.org/2000/svg" version="1.1">
                    <defs> 
                        <linearGradient id="sw-gradient" x1="0" x2="1" y1="1" y2="0">
                            <stop id="stop1" stop-color="rgba(72.073, 78.399, 255, 1)" offset="0%"></stop>
                            <stop id="stop2" stop-color="rgba(168.53, 200.812, 255, 1)" offset="100%"></stop>
                        </linearGradient>
                    </defs>
                <path fill="url(#sw-gradient)" d="M22.7,-32.3C29.4,-31.1,34.7,-24.7,33.4,-18C32.2,-11.4,24.4,-4.5,21.7,2C19.1,8.5,21.5,14.6,20.9,21.5C20.2,28.4,16.5,36.1,10.9,38.3C5.2,40.5,-2.4,37.3,-8.2,33.2C-14,29,-18,24,-22.6,19.3C-27.2,14.5,-32.4,10,-34.9,4C-37.5,-2,-37.3,-9.5,-34.8,-16.3C-32.3,-23.1,-27.5,-29.2,-21.3,-30.6C-15.1,-32,-7.6,-28.7,0.2,-29C8,-29.4,16.1,-33.4,22.7,-32.3Z" width="100%" height="100%" transform="translate(50 50)" stroke-width="0" style="transition: all 0.3s ease 0s;" stroke="url(#sw-gradient)"></path>
              </svg>