<?xml version="1.0" encoding="utf-8"?>
<svg xmlns="http://www.w3.org/2000/svg" style="margin: auto; display: block; shape-rendering: auto; background: none;" width="280" height="250" preserveAspectRatio="xMidYMid">
<style type="text/css">
  text {
    text-anchor: middle; font-size: 55px; opacity: 0;
  }
</style>
<g style="transform-origin: 140px 125px; transform: scale(1.83333);">
<g transform="translate(140,125)">
  <g transform="translate(0,0)"><g class="path" style="transform: scale(0.91); transform-origin: -50.025px -1.37213px; animation: 1s linear -0.586667s infinite normal forwards running breath-0a99d8b4-2996-4361-b71f-764d139dc5fe;"><path d="M13.92-7.20L13.92-7.20L13.92-7.20Q13.14-5.88 12.04-4.54L12.04-4.54L12.04-4.54Q10.95-3.21 9.57-1.96L9.57-1.96L9.57-1.96Q8.19-0.72 6.54 0.06L6.54 0.06L6.54 0.06Q4.89 0.84 3.33 0.84L3.33 0.84L3.33 0.84Q0.84 0.84 0.84-2.88L0.84-2.88L0.84-2.88Q0.84-7.59 3.58-12.75L3.58-12.75L3.58-12.75Q6.33-17.91 10.59-21.18L10.59-21.18L10.59-21.18Q10.86-21.39 11.32-21.68L11.32-21.68L11.32-21.68Q11.79-21.96 13.06-22.45L13.06-22.45L13.06-22.45Q14.34-22.95 15.39-22.95L15.39-22.95L15.39-22.95Q16.20-22.95 16.80-22.71L16.80-22.71L16.80-22.71Q16.86-22.68 16.95-22.68L16.95-22.68L16.95-22.68Q17.16-22.68 17.28-22.89L17.28-22.89L17.28-22.89Q17.91-23.40 19.29-23.40L19.29-23.40L19.53-23.40L19.53-23.40Q19.95-23.40 19.95-22.98L19.95-22.98L19.95-22.98Q19.95-22.32 18.97-20.88L18.97-20.88L18.97-20.88Q18-19.44 17.16-18.45L17.16-18.45L17.16-18.45Q16.32-17.46 15.66-16.74L15.66-16.74L15.66-16.74Q14.55-15.57 14.10-15.57L14.10-15.57L14.10-15.57Q13.89-15.57 13.89-15.87L13.89-15.87L13.89-15.87Q13.89-16.92 15.60-19.98L15.60-19.98L15.60-19.98Q15.63-20.04 15.90-20.46L15.90-20.46L15.90-20.46Q16.17-20.88 16.29-21.16L16.29-21.16L16.29-21.16Q16.41-21.45 16.41-21.69L16.41-21.69L16.41-21.69Q16.41-22.20 15.60-22.20L15.60-22.20L15.60-22.20Q14.94-22.20 14.14-21.78L14.14-21.78L14.14-21.78Q13.35-21.36 12.90-20.94L12.90-20.94L12.42-20.52L12.42-20.52Q9.24-17.58 6.67-12.76L6.67-12.76L6.67-12.76Q4.11-7.95 4.11-4.02L4.11-4.02L4.11-4.02Q4.11-1.17 5.91-1.17L5.91-1.17L5.91-1.17Q6.15-1.17 6.46-1.23L6.46-1.23L6.46-1.23Q6.78-1.29 7.54-1.64L7.54-1.64L7.54-1.64Q8.31-1.98 9.04-2.59L9.04-2.59L9.04-2.59Q9.78-3.21 10.75-4.48L10.75-4.48L10.75-4.48Q11.73-5.76 12.60-7.47L12.60-7.47L12.60-7.47Q12.84-7.95 13.23-8.83L13.23-8.83L13.23-8.83Q13.62-9.72 13.84-10.14L13.84-10.14L13.84-10.14Q14.07-10.56 14.22-10.56L14.22-10.56L14.22-10.56Q14.43-10.56 14.55-10.19L14.55-10.19L14.55-10.19Q14.67-9.81 14.67-9.54L14.67-9.54L14.67-9.54Q14.67-8.43 13.92-7.20" fill="#ffffff" stroke="none" stroke-width="none" transform="translate(-60.41998291015625,9.907868754069014)" style="fill: rgb(255, 255, 255);"></path></g><g class="path" style="transform: scale(0.91); transform-origin: -37.635px -1.10213px; animation: 1s linear -0.513333s infinite normal forwards running breath-0a99d8b4-2996-4361-b71f-764d139dc5fe;"><path d="M28.71-19.98L28.71-19.98L28.71-19.98Q28.08-19.98 26.97-19.08L26.97-19.08L26.97-19.08Q25.86-18.18 25.17-17.41L25.17-17.41L25.17-17.41Q24.48-16.65 24.36-16.47L24.36-16.47L24.36-16.47Q24.03-16.02 23.79-16.02L23.79-16.02L23.79-16.02Q23.58-16.02 23.58-16.35L23.58-16.35L23.58-16.35Q23.58-16.44 23.64-16.68L23.64-16.68L23.64-16.68Q24.33-18.75 26.53-20.84L26.53-20.84L26.53-20.84Q28.74-22.92 30.69-22.92L30.69-22.92L30.69-22.92Q32.43-22.92 32.43-20.25L32.43-20.25L32.43-20.25Q32.43-18.72 31.77-16.52L31.77-16.52L31.77-16.52Q31.11-14.31 30.66-13.28L30.66-13.28L30.66-13.28Q30.21-12.24 29.91-11.64L29.91-11.64L29.91-11.64Q29.10-10.05 28.11-8.47L28.11-8.47L28.11-8.47Q27.12-6.90 25.70-5.16L25.70-5.16L25.70-5.16Q24.27-3.42 22.75-2.11L22.75-2.11L22.75-2.11Q21.24-0.81 19.38 0.04L19.38 0.04L19.38 0.04Q17.52 0.90 15.72 0.90L15.72 0.90L15.72 0.90Q13.14 0.90 13.14-2.73L13.14-2.73L13.14-2.73Q13.14-5.70 14.31-8.80L14.31-8.80L14.31-8.80Q15.48-11.91 17.16-14.21L17.16-14.21L17.16-14.21Q18.84-16.50 20.63-18.12L20.63-18.12L20.63-18.12Q22.41-19.74 23.76-20.16L23.76-20.16L23.76-20.16Q23.91-20.22 24.15-20.22L24.15-20.22L24.15-20.22Q24.39-20.22 24.39-20.07L24.39-20.07L24.39-20.07Q24.39-19.89 24.15-19.62L24.15-19.62L24.15-19.62Q23.28-18.78 22.09-17.20L22.09-17.20L22.09-17.20Q20.91-15.63 19.52-13.38L19.52-13.38L19.52-13.38Q18.12-11.13 17.16-8.34L17.16-8.34L17.16-8.34Q16.20-5.55 16.20-3.09L16.20-3.09L16.20-3.09Q16.20-0.51 17.91-0.51L17.91-0.51L17.91-0.51Q21.54-0.51 25.86-8.01L25.86-8.01L25.86-8.01Q29.40-14.10 29.40-19.05L29.40-19.05L29.40-19.05Q29.40-19.98 28.71-19.98" fill="#ffffff" stroke="none" stroke-width="none" transform="translate(-60.41998291015625,9.907868754069014)" style="fill: rgb(255, 255, 255);"></path></g><g class="path" style="transform: scale(0.91); transform-origin: -20.955px -0.922131px; animation: 1s linear -0.44s infinite normal forwards running breath-0a99d8b4-2996-4361-b71f-764d139dc5fe;"><path d="M53.34-22.26L53.34-22.26L53.34-22.26Q51.78-20.01 49.86-16.56L49.86-16.56L49.86-16.56Q47.94-13.11 46.80-10.77L46.80-10.77L45.66-8.43L45.66-8.43Q42.57-2.01 42.57 0.78L42.57 0.78L42.57 0.78Q42.57 0.84 42.58 1.02L42.58 1.02L42.58 1.02Q42.60 1.20 42.60 1.32L42.60 1.32L42.60 1.32Q42.60 1.80 42.33 1.80L42.33 1.80L42.33 1.80Q41.82 1.80 41.22 0.91L41.22 0.91L41.22 0.91Q40.62 0.03 40.62-1.44L40.62-1.44L40.62-1.44Q40.62-2.79 41.27-4.74L41.27-4.74L41.27-4.74Q41.91-6.69 43.17-9.20L43.17-9.20L43.17-9.20Q44.43-11.70 45.28-13.23L45.28-13.23L45.28-13.23Q46.14-14.76 47.55-17.22L47.55-17.22L47.55-17.22Q47.64-17.40 47.64-17.49L47.64-17.49L47.64-17.49Q47.58-17.64 47.49-17.64L47.49-17.64L47.49-17.64Q47.31-17.64 47.13-17.49L47.13-17.49L47.13-17.49Q45.36-16.05 42.48-12.60L42.48-12.60L42.48-12.60Q39.60-9.15 37.62-6.42L37.62-6.42L35.61-3.69L35.61-3.69Q35.13-2.97 34.83-2.97L34.83-2.97L34.83-2.97Q34.74-2.97 34.68-3.03L34.68-3.03L34.68-3.03Q34.62-3.09 34.59-3.19L34.59-3.19L34.59-3.19Q34.56-3.30 34.55-3.39L34.55-3.39L34.55-3.39Q34.53-3.48 34.53-3.54L34.53-3.54L34.53-3.60L34.53-3.60Q34.74-5.46 35.14-8.79L35.14-8.79L35.14-8.79Q35.55-12.12 35.82-14.40L35.82-14.40L35.82-14.40Q36.09-16.68 36.09-16.74L36.09-16.74L36.09-16.74Q36.09-17.04 35.97-17.04L35.97-17.04L35.97-17.04Q35.91-17.04 35.80-16.95L35.80-16.95L35.80-16.95Q35.70-16.86 35.64-16.77L35.64-16.77L35.58-16.68L35.58-16.68Q34.29-14.76 32.82-11.71L32.82-11.71L32.82-11.71Q31.35-8.67 30.45-6.33L30.45-6.33L30.45-6.33Q29.79-4.65 29.10-3.25L29.10-3.25L29.10-3.25Q28.41-1.86 27.88-1.09L27.88-1.09L27.88-1.09Q27.36-0.33 26.92 0.20L26.92 0.20L26.92 0.20Q26.49 0.72 26.25 0.90L26.25 0.90L26.01 1.08L26.01 1.08Q25.68 1.35 25.50 1.35L25.50 1.35L25.50 1.35Q25.32 1.35 25.32 1.05L25.32 1.05L25.35 0.78L25.35 0.78Q25.65-0.81 27.97-5.28L27.97-5.28L27.97-5.28Q30.30-9.75 32.49-13.44L32.49-13.44L34.68-17.10L36.33-19.95L36.33-19.95Q37.56-23.46 38.22-23.46L38.22-23.46L38.22-23.46Q38.67-23.46 38.67-21.93L38.67-21.93L38.67-21.93Q37.74-10.77 37.74-9.18L37.74-9.18L37.74-9.18Q37.74-8.73 37.92-8.73L37.92-8.73L37.92-8.73Q38.10-8.73 38.34-9.06L38.34-9.06L38.34-9.06Q38.73-9.57 39.42-10.44L39.42-10.44L39.42-10.44Q40.11-11.31 42.06-13.56L42.06-13.56L42.06-13.56Q44.01-15.81 45.73-17.61L45.73-17.61L45.73-17.61Q47.46-19.41 49.50-21.06L49.50-21.06L49.50-21.06Q51.54-22.71 52.86-23.07L52.86-23.07L52.86-23.07Q53.16-23.13 53.25-23.13L53.25-23.13L53.25-23.13Q53.61-23.13 53.61-22.86L53.61-22.86L53.61-22.86Q53.61-22.62 53.34-22.26" fill="#ffffff" stroke="none" stroke-width="none" transform="translate(-60.41998291015625,9.907868754069014)" style="fill: rgb(255, 255, 255);"></path></g><g class="path" style="transform: scale(0.91); transform-origin: -6.17998px -0.622131px; animation: 1s linear -0.366667s infinite normal forwards running breath-0a99d8b4-2996-4361-b71f-764d139dc5fe;"><path d="M52.71-9.69L52.71-9.69L52.71-9.69Q52.50-9.30 50.19-4.62L50.19-4.62L50.19-4.62Q48.66-1.50 47.12 0.10L47.12 0.10L47.12 0.10Q45.57 1.71 44.76 1.71L44.76 1.71L44.76 1.71Q44.40 1.71 44.40 1.38L44.40 1.38L44.49 1.02L44.49 1.02Q44.82 0.12 46.55-3.21L46.55-3.21L46.55-3.21Q48.27-6.54 49.77-9.12L49.77-9.12L49.77-9.12Q51.18-11.58 52.53-13.88L52.53-13.88L52.53-13.88Q53.88-16.17 54.54-17.25L54.54-17.25L55.20-18.33L55.20-18.33Q55.26-18.42 55.35-18.57L55.35-18.57L55.35-18.57Q55.44-18.72 55.76-19.11L55.76-19.11L55.76-19.11Q56.07-19.50 56.40-19.79L56.40-19.79L56.40-19.79Q56.73-20.07 57.18-20.31L57.18-20.31L57.18-20.31Q57.63-20.55 58.05-20.55L58.05-20.55L58.05-20.55Q58.44-20.55 58.44-20.34L58.44-20.34L58.44-20.34Q58.44-20.07 58.08-19.56L58.08-19.56L58.08-19.56Q55.83-15.72 53.28-10.83L53.28-10.83L53.28-10.83Q53.25-10.77 53.25-10.71L53.25-10.71L53.25-10.71Q53.25-10.62 53.37-10.62L53.37-10.62L53.37-10.62Q55.26-10.62 56.87-11.34L56.87-11.34L56.87-11.34Q58.47-12.06 59.48-13.21L59.48-13.21L59.48-13.21Q60.48-14.37 61.03-15.69L61.03-15.69L61.03-15.69Q61.59-17.01 61.59-18.30L61.59-18.30L61.59-18.30Q61.59-20.13 60.21-21.06L60.21-21.06L60.21-21.06Q58.83-21.99 56.97-21.99L56.97-21.99L56.97-21.99Q55.56-21.99 54.23-21.57L54.23-21.57L54.23-21.57Q52.89-21.15 51.88-20.13L51.88-20.13L51.88-20.13Q50.88-19.11 50.88-17.70L50.88-17.70L50.88-17.70Q50.88-16.86 51.33-16.08L51.33-16.08L51.33-16.08Q51.48-15.78 51.48-15.66L51.48-15.66L51.48-15.66Q51.48-15.48 51.24-15.48L51.24-15.48L51.24-15.48Q51.18-15.48 51-15.54L51-15.54L51-15.54Q50.91-15.57 50.76-15.66L50.76-15.66L50.76-15.66Q50.61-15.75 50.22-16.02L50.22-16.02L50.22-16.02Q49.83-16.29 49.53-16.59L49.53-16.59L49.53-16.59Q49.23-16.89 48.99-17.38L48.99-17.38L48.99-17.38Q48.75-17.88 48.75-18.39L48.75-18.39L48.75-18.39Q48.75-20.25 51.05-21.51L51.05-21.51L51.05-21.51Q53.34-22.77 56.25-22.77L56.25-22.77L56.25-22.77Q57.66-22.77 58.94-22.53L58.94-22.53L58.94-22.53Q60.21-22.29 61.42-21.77L61.42-21.77L61.42-21.77Q62.64-21.24 63.36-20.25L63.36-20.25L63.36-20.25Q64.08-19.26 64.08-17.91L64.08-17.91L64.08-17.91Q64.08-15.90 63.05-14.29L63.05-14.29L63.05-14.29Q62.01-12.69 60.34-11.74L60.34-11.74L60.34-11.74Q58.68-10.80 56.79-10.30L56.79-10.30L56.79-10.30Q54.90-9.81 52.98-9.81L52.98-9.81L52.98-9.81Q52.95-9.84 52.89-9.84L52.89-9.84L52.89-9.84Q52.77-9.84 52.71-9.69" fill="#ffffff" stroke="none" stroke-width="none" transform="translate(-60.41998291015625,9.907868754069014)" style="fill: rgb(255, 255, 255);"></path></g><g class="path" style="transform: scale(0.91); transform-origin: 5.44502px -0.892131px; animation: 1s linear -0.293333s infinite normal forwards running breath-0a99d8b4-2996-4361-b71f-764d139dc5fe;"><path d="M60.66-14.43L60.66-14.43L60.66-14.43Q58.53-14.43 58.53-10.47L58.53-10.47L58.53-10.26L58.53-10.26Q58.53-9.87 58.35-9.87L58.35-9.87L58.35-9.87Q57.90-9.87 57.68-10.95L57.68-10.95L57.68-10.95Q57.45-12.03 57.45-12.78L57.45-12.78L57.45-12.78Q57.45-14.01 58.01-14.97L58.01-14.97L58.01-14.97Q58.56-15.93 59.73-15.93L59.73-15.93L59.73-15.93Q62.04-15.93 64.17-13.23L64.17-13.23L64.17-13.23Q65.97-15.33 68.03-17.47L68.03-17.47L68.03-17.47Q70.08-19.62 71.22-20.70L71.22-20.70L72.36-21.81L72.36-21.81Q74.22-24.60 75.42-24.60L75.42-24.60L75.42-24.60Q75.72-24.60 75.72-24.33L75.72-24.33L75.72-24.33Q75.72-24.15 75.60-23.91L75.60-23.91L75.60-23.91Q72.96-18.72 70.77-12.21L70.77-12.21L70.77-12.21Q68.01-3.93 68.01 0.48L68.01 0.48L68.01 0.48Q68.01 1.86 68.34 2.49L68.34 2.49L68.34 2.49Q68.46 2.64 68.46 2.79L68.46 2.79L68.46 2.79Q68.46 3 68.10 3L68.10 3L68.10 3Q67.29 3 66.75 2.59L66.75 2.59L66.75 2.59Q66.21 2.19 65.98 1.53L65.98 1.53L65.98 1.53Q65.76 0.87 65.67 0.34L65.67 0.34L65.67 0.34Q65.58-0.18 65.58-0.72L65.58-0.72L65.58-0.72Q65.58-1.62 65.91-3.39L65.91-3.39L65.91-3.39Q66.24-5.16 66.24-5.97L66.24-5.97L66.24-5.97Q66.24-7.17 65.72-8.80L65.72-8.80L65.72-8.80Q65.19-10.44 64.32-11.79L64.32-11.79L64.32-11.79Q63.36-10.47 62.57-9.15L62.57-9.15L62.57-9.15Q61.77-7.83 61.44-7.20L61.44-7.20L61.14-6.54L61.14-6.54Q60.06-4.32 59.01-2.49L59.01-2.49L59.01-2.49Q57.96-0.66 57.45 0.06L57.45 0.06L56.94 0.75L56.94 0.75Q56.61 1.14 56.34 1.14L56.34 1.14L56.34 1.14Q56.01 1.14 56.01 0.45L56.01 0.45L56.01 0.45Q56.10-3.78 63.69-12.66L63.69-12.66L63.69-12.66Q62.22-14.43 60.66-14.43zM71.28-19.26L70.95-19.14L70.95-19.14Q67.65-16.26 64.77-12.39L64.77-12.39L64.77-12.39Q66.03-10.47 66.72-8.01L66.72-8.01L66.72-8.01Q66.81-7.74 66.87-7.74L66.87-7.74L67.02-8.01L67.02-8.01Q67.77-10.56 68.84-13.30L68.84-13.30L68.84-13.30Q69.90-16.05 70.59-17.52L70.59-17.52L71.28-18.96L71.28-18.96Q71.37-19.14 71.37-19.20L71.37-19.20L71.37-19.20Q71.37-19.26 71.28-19.26L71.28-19.26" fill="#ffffff" stroke="none" stroke-width="none" transform="translate(-60.41998291015625,9.907868754069014)" style="fill: rgb(255, 255, 255);"></path></g><g class="path" style="transform: scale(0.91); transform-origin: 15.93px -0.982131px; animation: 1s linear -0.22s infinite normal forwards running breath-0a99d8b4-2996-4361-b71f-764d139dc5fe;"><path d="M85.20-22.20L85.20-22.20L85.20-22.20Q84.09-21.33 82.52-18.73L82.52-18.73L82.52-18.73Q80.94-16.14 79.04-12.39L79.04-12.39L79.04-12.39Q77.13-8.64 77.07-8.52L77.07-8.52L77.07-8.52Q76.86-8.16 76.32-7.14L76.32-7.14L76.32-7.14Q75.78-6.12 75.47-5.54L75.47-5.54L75.47-5.54Q75.15-4.95 74.54-3.94L74.54-3.94L74.54-3.94Q73.92-2.94 73.44-2.31L73.44-2.31L73.44-2.31Q72.96-1.68 72.27-0.91L72.27-0.91L72.27-0.91Q71.58-0.15 70.94 0.28L70.94 0.28L70.94 0.28Q70.29 0.72 69.48 1.02L69.48 1.02L69.48 1.02Q68.67 1.32 67.86 1.32L67.86 1.32L67.86 1.32Q67.17 1.32 67.17 1.05L67.17 1.05L67.17 1.05Q67.17 0.96 67.26 0.87L67.26 0.87L67.26 0.87Q67.35 0.78 67.44 0.72L67.44 0.72L67.53 0.69L67.53 0.69Q68.82-0.12 70.71-2.79L70.71-2.79L70.71-2.79Q72.60-5.46 73.86-7.74L73.86-7.74L75.09-9.99L75.09-9.99Q76.47-12.63 77.81-14.83L77.81-14.83L77.81-14.83Q79.14-17.04 80.06-18.27L80.06-18.27L80.06-18.27Q80.97-19.50 81.68-20.36L81.68-20.36L81.68-20.36Q82.38-21.21 82.74-21.51L82.74-21.51L83.07-21.81L83.07-21.81Q83.16-21.90 83.16-21.99L83.16-21.99L83.16-21.99Q83.16-22.26 82.26-22.26L82.26-22.26L82.26-22.26Q81.30-22.26 80.40-21.78L80.40-21.78L80.40-21.78Q79.50-21.30 78.89-20.61L78.89-20.61L78.89-20.61Q78.27-19.92 77.79-19.21L77.79-19.21L77.79-19.21Q77.31-18.51 77.10-18.03L77.10-18.03L76.86-17.55L76.86-17.55Q76.74-17.07 76.53-17.07L76.53-17.07L76.53-17.07Q76.02-17.07 76.02-18.39L76.02-18.39L76.02-18.39Q76.02-20.01 77.09-21.12L77.09-21.12L77.09-21.12Q78.15-22.23 79.64-22.66L79.64-22.66L79.64-22.66Q81.12-23.10 82.86-23.10L82.86-23.10L82.86-23.10Q83.91-23.10 85.17-22.92L85.17-22.92L85.17-22.92Q85.53-22.86 85.53-22.65L85.53-22.65L85.53-22.65Q85.53-22.44 85.20-22.20" fill="#ffffff" stroke="none" stroke-width="none" transform="translate(-60.41998291015625,9.907868754069014)" style="fill: rgb(255, 255, 255);"></path></g><g class="path" style="transform: scale(0.91); transform-origin: 25.995px -1.01213px; animation: 1s linear -0.146667s infinite normal forwards running breath-0a99d8b4-2996-4361-b71f-764d139dc5fe;"><path d="M91.50-10.53L91.50-10.53L91.50-10.53Q86.28-1.50 86.13 0.99L86.13 0.99L86.13 0.99Q86.13 1.41 85.86 1.41L85.86 1.41L85.86 1.41Q85.41 1.41 85.05 0.61L85.05 0.61L85.05 0.61Q84.69-0.18 84.69-0.96L84.69-0.96L84.69-0.96Q84.69-2.01 85.14-3.30L85.14-3.30L85.14-3.30Q85.59-4.59 86.07-5.34L86.07-5.34L86.52-6.09L86.52-6.09Q86.61-6.21 86.61-6.30L86.61-6.30L86.61-6.30Q86.61-6.36 86.55-6.36L86.55-6.36L86.37-6.27L86.37-6.27Q84.09-3.48 82.19-1.75L82.19-1.75L82.19-1.75Q80.28-0.03 79.34 0.45L79.34 0.45L79.34 0.45Q78.39 0.93 77.79 0.93L77.79 0.93L77.79 0.93Q76.38 0.93 76.38-1.71L76.38-1.71L76.38-1.71Q76.38-3.90 77.22-6.73L77.22-6.73L77.22-6.73Q78.06-9.57 79.59-12.39L79.59-12.39L79.59-12.39Q81.12-15.21 83.01-17.59L83.01-17.59L83.01-17.59Q84.90-19.98 87.24-21.46L87.24-21.46L87.24-21.46Q89.58-22.95 91.83-22.95L91.83-22.95L91.83-22.95Q92.31-22.95 92.69-22.88L92.69-22.88L92.69-22.88Q93.06-22.80 93.27-22.74L93.27-22.74L93.27-22.74Q93.48-22.68 93.51-22.68L93.51-22.68L93.51-22.68Q93.72-22.68 93.87-22.89L93.87-22.89L93.87-22.89Q94.53-23.25 95.55-23.25L95.55-23.25L95.55-23.25Q96.45-23.25 96.45-22.80L96.45-22.80L96.45-22.80Q96.45-22.02 94.73-19.32L94.73-19.32L94.73-19.32Q93-16.62 92.43-16.62L92.43-16.62L92.43-16.62Q92.19-16.62 92.19-17.10L92.19-17.10L92.19-17.10Q92.19-17.58 92.40-18.51L92.40-18.51L92.40-18.51Q92.61-19.44 92.84-20.14L92.84-20.14L92.84-20.14Q93.06-20.85 93.06-20.82L93.06-20.82L93.06-20.82Q93.12-21.06 93.12-21.18L93.12-21.18L93.12-21.18Q93.12-21.66 92.72-21.90L92.72-21.90L92.72-21.90Q92.31-22.14 91.83-22.14L91.83-22.14L91.83-22.14Q89.61-22.14 86.72-18.64L86.72-18.64L86.72-18.64Q83.82-15.15 81.83-10.61L81.83-10.61L81.83-10.61Q79.83-6.06 79.83-3.12L79.83-3.12L79.83-3.12Q79.83-1.83 80.46-1.83L80.46-1.83L80.46-1.83Q81.18-1.83 83.01-3.66L83.01-3.66L83.01-3.66Q86.34-6.99 88.08-9.87L88.08-9.87L88.08-9.87Q88.83-10.98 88.83-12L88.83-12L88.83-12Q88.83-12.54 88.62-12.82L88.62-12.82L88.62-12.82Q88.41-13.11 88.41-13.23L88.41-13.23L88.41-13.23Q88.41-13.53 88.83-13.56L88.83-13.56L88.83-13.56Q89.73-13.65 90.84-13.65L90.84-13.65L90.84-13.65Q92.10-13.65 92.97-13.50L92.97-13.50L92.97-13.50Q93.21-13.47 93.21-13.26L93.21-13.26L93.21-13.26Q93.21-13.08 93-12.84L93-12.84L93-12.84Q92.34-11.97 91.50-10.53" fill="#ffffff" stroke="none" stroke-width="none" transform="translate(-60.41998291015625,9.907868754069014)" style="fill: rgb(255, 255, 255);"></path></g><g class="path" style="transform: scale(0.91); transform-origin: 39.915px -1.13213px; animation: 1s linear -0.0733333s infinite normal forwards running breath-0a99d8b4-2996-4361-b71f-764d139dc5fe;"><path d="M109.59-18.21L109.59-18.21L109.59-18.21Q106.59-14.25 103.98-9.57L103.98-9.57L103.98-9.57Q101.37-4.89 100.26-2.19L100.26-2.19L99.15 0.51L99.15 0.51Q98.67 1.53 98.31 1.53L98.31 1.53L98.31 1.53Q98.13 1.53 98.00 1.32L98.00 1.32L98.00 1.32Q97.86 1.11 97.80 0.90L97.80 0.90L97.74 0.69L97.74 0.69Q97.35-1.74 97.35-4.41L97.35-4.41L97.35-4.41Q97.35-6.54 97.65-10.61L97.65-10.61L97.65-10.61Q97.95-14.67 97.95-16.53L97.95-16.53L97.95-16.53Q97.95-16.83 97.83-16.83L97.83-16.83L97.83-16.83Q97.77-16.83 97.67-16.74L97.67-16.74L97.67-16.74Q97.56-16.65 97.50-16.56L97.50-16.56L97.44-16.47L97.44-16.47Q96.27-14.79 94.76-11.68L94.76-11.68L94.76-11.68Q93.24-8.58 92.37-6.33L92.37-6.33L92.37-6.33Q91.71-4.62 91.01-3.24L91.01-3.24L91.01-3.24Q90.30-1.86 89.76-1.08L89.76-1.08L89.76-1.08Q89.22-0.30 88.77 0.22L88.77 0.22L88.77 0.22Q88.32 0.75 88.08 0.93L88.08 0.93L87.84 1.11L87.84 1.11Q87.48 1.38 87.33 1.38L87.33 1.38L87.33 1.38Q87.15 1.38 87.15 1.08L87.15 1.08L87.15 1.08Q87.15-1.74 95.82-15.96L95.82-15.96L95.82-15.96Q96.54-17.13 97.13-18.12L97.13-18.12L97.13-18.12Q97.71-19.11 97.92-19.50L97.92-19.50L98.13-19.92L98.13-19.92Q99.39-23.43 100.05-23.43L100.05-23.43L100.05-23.43Q100.50-23.43 100.50-21.93L100.50-21.93L100.50-21.93Q100.71-14.70 100.71-9.78L100.71-9.78L100.71-9.78Q100.71-7.65 100.68-6.87L100.68-6.87L100.68-6.87Q100.74-6.39 100.95-6.39L100.95-6.39L100.95-6.39Q101.19-6.39 101.55-7.08L101.55-7.08L101.55-7.08Q104.76-13.20 105.60-15L105.60-15L105.60-15Q109.65-23.61 113.10-23.61L113.10-23.61L113.10-23.61Q113.52-23.61 113.52-23.37L113.52-23.37L113.52-23.37Q113.52-23.19 113.22-22.89L113.22-22.89L113.22-22.89Q112.44-21.99 109.59-18.21" fill="#ffffff" stroke="none" stroke-width="none" transform="translate(-60.41998291015625,9.907868754069014)" style="fill: rgb(255, 255, 255);"></path></g><g class="path" style="transform: scale(0.91); transform-origin: 51.285px -1.17713px; animation: 1s linear 0s infinite normal forwards running breath-0a99d8b4-2996-4361-b71f-764d139dc5fe;"><path d="M101.82-2.07L101.82-2.07L101.82-2.07Q102.30-3.27 103.19-4.86L103.19-4.86L103.19-4.86Q104.07-6.45 104.73-7.44L104.73-7.44L105.39-8.40L105.39-8.40Q105.81-9 106.23-9L106.23-9L106.23-9Q106.56-9 106.56-8.67L106.56-8.67L106.47-8.37L106.47-8.37Q105.39-5.64 105.39-3.66L105.39-3.66L105.39-3.66Q105.39-2.07 106.09-1.06L106.09-1.06L106.09-1.06Q106.80-0.06 108.30-0.06L108.30-0.06L108.30-0.06Q110.55-0.06 111.93-2.02L111.93-2.02L111.93-2.02Q113.31-3.99 113.31-6.27L113.31-6.27L113.31-6.27Q113.31-8.22 111.98-11.83L111.98-11.83L111.98-11.83Q110.64-15.45 110.64-16.74L110.64-16.74L110.64-16.74Q110.64-19.53 113.03-21.22L113.03-21.22L113.03-21.22Q115.41-22.92 118.26-22.92L118.26-22.92L118.26-22.92Q118.77-22.92 119.27-22.86L119.27-22.86L119.27-22.86Q119.76-22.80 120.36-22.66L120.36-22.66L120.36-22.66Q120.96-22.53 121.32-22.23L121.32-22.23L121.32-22.23Q121.68-21.93 121.68-21.48L121.68-21.48L121.68-21.48Q121.68-20.88 120.84-19.44L120.84-19.44L120.84-19.44Q120-18 119.43-17.25L119.43-17.25L119.43-17.25Q119.22-17.10 119.07-17.10L119.07-17.10L119.07-17.10Q118.86-17.10 118.86-17.46L118.86-17.46L118.86-17.46Q118.86-18.30 119.04-19.74L119.04-19.74L119.04-19.74Q119.04-22.08 117.24-22.08L117.24-22.08L117.24-22.08Q115.71-22.08 114.65-21.03L114.65-21.03L114.65-21.03Q113.58-19.98 113.58-18.48L113.58-18.48L113.58-18.48Q113.58-16.50 114.98-12.96L114.98-12.96L114.98-12.96Q116.37-9.42 116.37-7.50L116.37-7.50L116.37-7.50Q116.37-3.90 113.53-1.57L113.53-1.57L113.53-1.57Q110.70 0.75 107.16 0.75L107.16 0.75L107.16 0.75Q106.56 0.75 105.72 0.63L105.72 0.63L105.72 0.63Q104.88 0.51 103.95 0.26L103.95 0.26L103.95 0.26Q103.02 0 102.38-0.49L102.38-0.49L102.38-0.49Q101.73-0.99 101.73-1.62L101.73-1.62L101.73-1.62Q101.73-1.86 101.82-2.07" fill="#ffffff" stroke="none" stroke-width="none" transform="translate(-60.41998291015625,9.907868754069014)" style="fill: rgb(255, 255, 255);"></path></g></g>
</g>
</g>
<style id="breath-0a99d8b4-2996-4361-b71f-764d139dc5fe" data-anikit="">@keyframes breath-0a99d8b4-2996-4361-b71f-764d139dc5fe
{
  0% {
    animation-timing-function: cubic-bezier(0.9647,0.2413,-0.0705,0.7911);
    transform: scale(0.9099999999999999);
  }
  51% {
    animation-timing-function: cubic-bezier(0.9226,0.2631,-0.0308,0.7628);
    transform: scale(1.02994);
  }
  100% {
    transform: scale(0.9099999999999999);
  }
}</style></svg>